<?xml version="1.0" encoding="utf-8"?>
<!-- Generator: Adobe Illustrator 19.0.0, SVG Export Plug-In . SVG Version: 6.00 Build 0)  -->
<svg version="1.1" id="Layer_1" xmlns="http://www.w3.org/2000/svg" xmlns:xlink="http://www.w3.org/1999/xlink" x="0px" y="0px"
	 viewBox="0 0 1024 1024" style="enable-background:new 0 0 1024 1024;" xml:space="preserve">
<style type="text/css">
	.st0{fill:#35495E;}
	.st1{fill:#4FBA6F;}
</style>
<g id="XMLID_7_">
	<path id="XMLID_4_" class="st0" d="M2310.3,426.4c0-179.7-145.7-325.4-325.4-325.4c-179.7,0-325.4,145.7-325.4,325.4
		c0,157.5,111.9,288.8,260.5,318.9l64.9,112.4l64.9-112.4C2198.4,715.3,2310.3,583.9,2310.3,426.4z"/>
	<path id="XMLID_2_" class="st1" d="M2099.1,369.5h-56.7v-56.7c0-15.8-12.9-28.7-28.7-28.7h-57.5c-15.8,0-28.7,12.9-28.7,28.7v56.7
		h-56.7c-15.8,0-28.7,12.9-28.7,28.7v57.5c0,15.8,12.9,28.7,28.7,28.7h56.7v56.7c0,15.8,12.9,28.7,28.7,28.7h57.5
		c15.8,0,28.7-12.9,28.7-28.7v-56.7h56.7c15.8,0,28.7-12.9,28.7-28.7v-57.5C2127.8,382.4,2114.9,369.5,2099.1,369.5z"/>
</g>
<path id="XMLID_3_" class="st0" d="M1024,1361"/>
<g id="XMLID_11_">
	<path id="XMLID_5_" class="st0" d="M2310.3,1362c0-179.7-145.7-325.4-325.4-325.4c-179.7,0-325.4,145.7-325.4,325.4
		c0,157.5,111.9,288.8,260.5,318.9l64.9,112.4l64.9-112.4C2198.4,1650.8,2310.3,1519.5,2310.3,1362z"/>
	<path id="XMLID_32_" class="st1" d="M1835.9,1360.5c0-4.9,0-9.7,0-14.6c1.2-4.4,2.1-8.9,3.5-13.2c8.4-25.6,26.3-43,49.1-55.6
		c48.7-26.8,100.4-30.4,153.5-16.4c29.1,7.7,54.8,21.6,74.2,45.4c9.6,11.7,14.7,25.3,17.8,39.8c0,4.9,0,9.7,0,14.6
		c-0.7,3.2-1.4,6.3-2.1,9.5c-4.6,19.5-16,34.5-31.1,47.1c-6.4,5.3-5.9,19,0.3,24.4c2.1,1.8,3.5,5.1,3.9,7.9
		c0.7,4.3,0.3,8.8,0.3,13.2c-0.1,10.5-4,14.4-14.4,15.9c-25.5,3.7-50.9,8-76.4,11.3c-13.3,1.7-26.9,4-40,2.6
		c-32.6-3.6-64.9-9.2-97.3-14.1c-5.3-0.8-10.8-2.9-11.6-8.4c-1.1-7.7-0.6-15.6-0.3-23.4c0.1-1.6,1.8-4.1,3.3-4.6
		c6.4-2.5,4.3-7.8,4.5-12.3c0.2-4.7,0.5-9.1-4.1-13c-6.4-5.3-11.9-11.8-17.2-18.2C1842.6,1387.4,1838.5,1374.2,1835.9,1360.5z
		 M2077,1420.5c-62.3,0-123.8,0-185.8,0c0,6.1,0,11.9,0,17.9c62.1,0,123.8,0,185.8,0C2077,1432.3,2077,1426.7,2077,1420.5z
		 M1941.6,1327.7c6.9,6.3,12.2,11.6,17.9,16.4c3.6,3,4,6.3,3.2,10.6c-1.4,7.1-2.4,14.2-3.7,22.5c7.7-3.9,14.3-7.7,21.4-10.6
		c2.8-1.1,6.8-1.2,9.6,0c6.9,2.8,13.5,6.6,21.3,10.6c-1.4-9.1-2.8-16.6-3.5-24.2c-0.2-2.6,0.7-6,2.3-7.9
		c5.1-5.9,10.9-11.3,17.1-17.5c-8.6-1.4-16.2-2.3-23.7-4.1c-2.7-0.6-5.7-2.8-7.2-5.2c-4-6.6-7.2-13.7-11.1-21.3
		c-4.2,8.1-7.5,15.3-11.5,22.1c-1.2,2.1-4,3.9-6.3,4.4C1959.6,1325,1951.8,1326,1941.6,1327.7z"/>
</g>
<g id="XMLID_1_">
	<path id="XMLID_6_" class="st0" d="M2310.3-509.1c0-179.7-145.7-325.4-325.4-325.4c-179.7,0-325.4,145.7-325.4,325.4
		c0,157.5,111.9,288.8,260.5,318.9l64.9,112.4l64.9-112.4C2198.4-220.3,2310.3-351.6,2310.3-509.1z"/>
	<path id="XMLID_28_" class="st1" d="M2058.3-474.6c-9.3-1.5-19.7-3.1-30.2-4.7c-2.9-0.4-5.8-0.9-8.7-1.1
		c-7.3-0.6-12.9,2.1-17.7,7.7c-30.9,36.4-62.2,72.4-93,108.9c-22,26.2-66,18.4-80.5-14.1c-9-20-4.3-42.6,12.9-56.6
		c36.2-29.5,71.6-60,107.7-89.6c9.1-7.5,8.6-16.2,7-25.9c-1.3-7.8-2.7-15.6-3.6-23.4c-2.5-21.6,3.9-40.6,17.6-57.2
		c19.6-23.8,44.9-36.7,75.7-38.4c5.8-0.3,10.2,1.8,12.7,7.2c2.4,5.2,1.3,9.7-3.5,14.5c-13.3,13.3-26.5,26.6-39.8,39.8
		c-1.9,1.9-2.3,3.4-1.4,6c5.2,15.2,10.3,30.4,15.3,45.6c0.7,2.2,1.8,3.4,3.9,4.1c15.4,5,30.7,10.1,46,15.4c2.4,0.8,3.8,0.5,5.6-1.3
		c13.2-13.4,26.5-26.6,39.8-39.9c4.9-4.9,9.6-6,14.8-3.7c5,2.2,7.7,6.8,7.1,13.2c-3.6,40.2-22.5,70.3-59.6,87.8
		c-3.6,1.7-7.7,2.8-11.7,3.6C2069.8-475.8,2064.7-475.4,2058.3-474.6z M1873.2-373c13.6,0,24.6-11,24.7-24.5
		c0-13.4-11.3-24.7-24.7-24.7c-13.6,0-24.5,11-24.5,24.7C1848.7-383.8,1859.5-373,1873.2-373z"/>
</g>
<g id="XMLID_18_">
	<g id="XMLID_9_">
		<path id="XMLID_10_" class="st0" d="M2310.3,2297.5c0-179.7-145.7-325.4-325.4-325.4c-179.7,0-325.4,145.7-325.4,325.4
			c0,157.5,111.9,288.8,260.5,318.9l64.9,112.4l64.9-112.4C2198.4,2586.3,2310.3,2455,2310.3,2297.5z"/>
	</g>
	<path id="XMLID_39_" class="st1" d="M2054.8,2444.6c-73.8,0-147.6,0-221.4,0c0-4.7,0-9.5,0-14.2c2.7-7.1,8.1-9.7,15.4-9.1
		c2.5,0.2,5.1,0,7.9,0c0-1.7,0-2.9,0-4.2c0-57.2,0-114.4,0-171.7c0-22.6-0.1-45.2,0-67.8c0.1-21.1,15.2-36.2,36.2-36.2
		c34.2,0,68.5,0,102.7,0c3,0,6.1,0.3,9.1,1c16.4,4,26.9,17.7,26.9,35.1c0,37.2,0,74.4,0,111.6c0,1.2,0,2.5,0,3.5
		c6.3,0.6,12.1,0.8,17.8,1.7c12,1.9,21,8.1,25.1,19.8c1.8,5.2,2.8,10.9,3.3,16.4c1.1,14.2,1.5,28.5,2.6,42.8
		c0.5,6.6,2.1,13.1,5.6,18.8c4.7,7.8,14.9,7.8,19.6,0c1.1-1.8,1.9-3.9,2.7-5.9c3.6-10.1,4.3-20.7,4.6-31.2
		c0.5-17.9,0.4-35.9,0.4-53.9c0-1.6-0.9-3.6-2.1-4.8c-6.4-6.6-13-12.9-19.6-19.4c-8.6-8.5-13.7-18.2-12.9-30.8
		c0.5-8.8,0.2-17.8,0-26.6c0-1.6-0.8-3.5-1.9-4.6c-9.4-9.7-19-19.3-28.4-28.9c-1-1.1-2.1-2.1-2.9-3.3c-2.9-4.1-2.5-10.3,0.9-14
		c5-5.5,12.2-5.5,17.9,0.4c17.6,18,35.2,36,52.5,54.2c8.7,9.2,16.9,18.8,19.8,31.7c0,33,0,65.9,0,98.9c-0.6,6.6-1.1,13.1-1.9,19.7
		c-1.4,11.1-3.7,21.9-9.8,31.6c-12.3,19.7-41.1,21.6-55.7,3.6c-7.5-9.2-10.6-20.3-11.8-31.7c-1.4-13.6-1.6-27.3-2.6-41
		c-0.3-4.4-1-8.8-1.8-13.1c-0.5-2.5-2.1-4.7-4.8-5.1c-5.4-0.8-10.8-1.3-16.4-2c0,35.5,0,70.3,0,105.4c3.9,0,7.7-0.1,11.4,0
		c7.1,0.3,11.5,4.9,11.6,12C2054.8,2437.1,2054.8,2440.8,2054.8,2444.6z M1944.4,2258.1c16.7,0,33.4,0,50,0
		c9.4,0,13.8-4.4,13.8-13.7c0-22,0-44,0-66c0-9.2-4.4-13.6-13.6-13.6c-33.6,0-67.3,0-100.9,0c-9.2,0-13.7,4.5-13.7,13.6
		c0,22,0.2,44-0.1,66c-0.1,9.5,6.3,14,13.8,13.9C1910.6,2257.9,1927.5,2258.1,1944.4,2258.1z"/>
</g>
<g id="XMLID_14_">
	<path id="XMLID_12_" class="st0" d="M2310.3,3233.1c0-179.7-145.7-325.4-325.4-325.4c-179.7,0-325.4,145.7-325.4,325.4
		c0,157.5,111.9,288.8,260.5,318.9l64.9,112.4l64.9-112.4C2198.4,3521.9,2310.3,3390.5,2310.3,3233.1z"/>
	<path id="XMLID_47_" class="st1" d="M2048.7,3040.7c4.4,1.5,6.1,3.8,6.2,8.6c0.1,7.9,0.1,15.9,0,23.8c0,4.7-2.5,7.4-7.2,8
		c-3.9,0.5-7.7-0.1-11.4-1.3c-1.8-0.6-3.6-1-5.5-1.1c-12.7-0.2-25.4-0.3-38.2-0.4c-0.2,0-0.4,0.1-0.7,0.1c0,29.2,0,58.4,0,88
		c4,0,7.9-0.2,11.8,0c7,0.3,14,0.7,21,1.4c3.9,0.4,5.3,2.3,5.6,6c0.3,3.7-1.7,7-4.7,8.3c-0.7,0.3-1.2,1.5-1.3,2.4
		c-0.3,7.9-0.7,15.9-0.7,23.8c-0.1,56.7-0.1,113.4-0.1,170.1c0,0.4,0,0.8,0,1.3c2.5,0.4,4.9,0.3,7-0.9c8.7-4.6,14.8-11.4,15.4-21.6
		c0.7-10.7,0.9-21.4,1.2-32.1c0.3-11.2,0.4-22.5,0.9-33.7c0.7-18,11.1-30,28.7-33.5c14.5-2.8,29.9,4.3,37,17.2
		c1.3,2.4,2.6,4.9,3.8,7.4c0.3,0.7,0.5,1.6,0.5,2.4c0.2,10.1,0.3,20.3,0.5,30.4c0.1,3.2,0.4,6.4,0.7,9.6c0.1,0.7,0.4,1.6,1,2
		c1.9,1.5,2.1,3.5,2.1,5.6c0,3.5,0,7.1,0,10.8c0.9,0,1.6,0,2.3,0c3.1,0.1,6.2,0.1,9.3,0.3c3.3,0.3,3.8,0.7,3.9,3.8
		c0.2,5.1,0.1,10.2,0.1,15.3c0,1.7-0.7,2.6-2.5,2.7c-5.9,0.2-11.9,0.5-17.8,0.6c-9.1,0-18.2-0.1-27.3-0.3c-1.2,0-2.3-0.2-3.5-0.3
		c-3-0.3-3.5-0.6-3.6-3.6c-0.1-4.8-0.1-9.5,0-14.3c0.1-3,0.7-3.6,3.7-3.9c3.8-0.3,7.7-0.4,11.8-0.6c0-3.1,0-6.1,0-9.2
		c0-2.6,0.4-4.9,2.3-7c0.7-0.8,1.2-2.1,1.2-3.2c0.1-11.7,0.4-23.4-0.1-35c-0.3-8.4-8.2-15.3-16.8-15.5c-2.6-0.1-5.3,0-7.9,0.5
		c-4.5,0.8-8.1,3.3-10.5,7.3c-1.3,2.1-2.4,4.3-3.5,6.5c-0.3,0.7-0.4,1.6-0.4,2.4c0,14.3,0.2,28.6-0.1,42.8c-0.2,9-0.4,18-1.6,26.8
		c-1.8,14.1-9.1,24.9-21.4,32.1c-1.3,0.7-2.7,1.1-4.1,1.7c-0.8,0.3-1.6,0.7-2.4,1c0.1,0.4,0.1,0.6,0.2,0.7c6.2,5,12.3,9.8,20.7,10.4
		c2,0.1,4.1,1.1,5.9,2.1c2.2,1.3,3,3.7,2.6,6.3c-0.4,2.9-2.1,5-4.7,6.2c-0.3,0.2-0.7,0.3-1,0.5c-2.3,0-4.7,0-7,0
		c-0.4-0.1-0.8-0.3-1.1-0.3c-6,0.9-10.5-1.9-14.9-5.4c-1.6-1.3-3.4-2.3-5.1-3.5c-1.8-1.2-3.6-2.4-5.7-3.8c0.5,4.1-0.8,7.3-3.3,10
		c-0.5,0.5-1.2,0.9-1.9,0.9c-22.8,0-45.7,0-68.5,0c-0.5,0-1.3-0.1-1.5-0.5c-1.3-2.1-2.6-4.1-3.6-6.3c-0.5-1.1-0.2-2.5-0.3-3.9
		c-0.6,0.4-1.1,0.6-1.5,0.9c-4.3,2.9-8.7,5.8-13,8.7c-1.5,1-2.9,2.1-4.4,3.1c-4.8,0-9.6,0-14.3,0c-2-0.5-3.7-1.4-4.7-3.3
		c-0.5-0.9-1-1.7-1.5-2.6c0-1,0-2.1,0-3.1c1.7-4.2,4.8-6.1,9.2-6.3c4.5-0.2,8.6-1.7,12.3-4.2c5.5-3.8,11-7.5,16.4-11.3
		c0.6-0.4,1-1.5,1-2.2c0-67.2-0.1-134.5-0.2-201.7c0-2.1-0.4-3.6-2.5-4.9c-5.1-3.1-5.1-9.7-0.1-12.5c1.8-1,4.2-1.3,6.3-1.4
		c8.7-0.4,17.4-0.7,26.1-0.9c1.9,0,2.5-0.5,2.5-2.5c-0.1-27.6,0-55.3,0-82.9c0-0.8,0-1.5,0-2.3c-0.5-0.1-0.7-0.2-1-0.2
		c-12.6,0.1-25.2,0.2-37.8,0.4c-1.8,0-3.6,0.5-5.2,1.2c-6,2.3-11.7,2.2-17-1.7c-1-0.7-1.3-1.4-1.2-2.6c0.1-6.8,0-13.6,0.1-20.3
		c0-3.1,0.2-6.2,0.4-9.3c0.2-2.4,1.6-3.9,3.8-4.5c1-0.3,2.1-0.5,3.1-0.8c2.2,0,4.4,0,6.6,0c2.3,0.6,4.7,1.6,7,1.9
		c3.7,0.5,7.5,0.8,11.2,0.8c25.2,0.1,50.5,0,75.7,0c6.9,0,13.7-1,20.4-2.7C2044.3,3040.7,2046.5,3040.7,2048.7,3040.7z"/>
</g>
<g id="XMLID_15_">
	<path id="XMLID_13_" class="st0" d="M2310.3-1444.6c0-179.7-145.7-325.4-325.4-325.4c-179.7,0-325.4,145.7-325.4,325.4
		c0,157.5,111.9,288.8,260.5,318.9l64.9,112.4l64.9-112.4C2198.4-1155.8,2310.3-1287.2,2310.3-1444.6z"/>
	<path id="XMLID_67_" class="st1" d="M1893.5-1308.2c-5.7,0-11.5,0-17.2,0c-0.4-0.3-0.8-0.7-1.2-0.8c-14.9-2.9-26.4-10.8-33.9-24.1
		c-4.3-7.7-7-15.9-6.3-25.2c-11.3,0-22.2-0.4-33.1,0.1c-8.3,0.4-13.7-2.9-16.9-10.3c0-15.6,0-31.3,0-46.9
		c3.9-8.7,11.1-10.3,19.9-10.2c36.1,0.2,72.1,0.1,108.2,0.1c1.5,0,3,0,4.8,0c0-11.1,0-21.8,0-32.5c0-0.9-0.5-2-1.1-2.7
		c-4.5-5.1-9-10.3-13.7-15.3c-8.1-8.7-16.3-17.3-24.4-26.1c-3.5-3.8-6.7-7.8-10.2-11.6c-5.1-5.5-10.4-11-16.2-17.1
		c0,2.3,0,3.6,0,4.8c0,19.4,0.2,38.8-0.2,58.2c-0.1,4.8-1.4,10.1-3.8,14.1c-5.9,9.8-15.1,13.7-26.6,11.6
		c-11.4-2.1-18.4-10.7-20.1-21.3c-1-6,0.8-9.5,4.6-11.2c5.5-2.5,11.6,0.6,12.5,6.9c0.8,5.6,3.4,8.1,7.6,8.4
		c4.7,0.3,8.7-2.9,8.8-10.7c0.2-25.8,0.1-51.6,0-77.3c0-1.2-0.6-2.7-1.5-3.7c-5-5.7-10.2-11.3-15.3-17c-3.3-3.7-4-7.4-1.1-11.5
		c3.3-4.5,7.2-8.5,10.9-12.7c1.8,0,3.6,0,5.5,0c0.7,0.4,1.6,0.7,2.2,1.1c12.3,8.6,24.6,17.4,37,25.9c23.7,16.3,47.5,32.6,71.3,48.9
		c16.7,11.5,33.5,22.9,50.1,34.5c3.9,2.7,6.7,6.5,7.3,11.4c0.6,4.9,0.8,9.8,0.8,14.7c0.1,9.9,0,19.7,0,29.7c5.4,0,10.4,0,15.7,0
		c0-2.2,0-4.1,0-6c0-38.1,0-76.3,0-114.4c0-7.8,4.4-12.2,11.9-12.2c27.3,0,54.7,0.1,82-0.1c4.9,0,8.2,1.8,10.8,5.8
		c20.7,31.2,41.6,62.3,62.4,93.5c0,31.3,0,62.5,0,93.8c-2.9,5.8-7.7,7.5-13.9,7.1c-6.2-0.4-12.4-0.1-18.5-0.1
		c-0.4,2.6-0.9,4.7-1.2,6.8c-2.4,17.9-12,30.6-28,38.6c-4.2,2.1-9,3.1-13.5,4.6c-5.7,0-11.5,0-17.2,0c-1.8-0.5-3.5-1.1-5.3-1.6
		c-15.5-4.9-26.8-14.6-32.6-29.9c-2.2-5.7-3-12-4.6-18.3c-37.9,0-76.5,0-114.9,0c-0.2,0.3-0.4,0.4-0.4,0.5c-0.1,0.4-0.1,0.8-0.1,1.2
		c-0.8,19.9-10.1,34.5-28,43.3C1902.7-1311,1898-1309.8,1893.5-1308.2z M2068.7-1458.5c28.5,0,56.6,0,85,0c-0.1-0.6-0.1-1-0.3-1.3
		c-12.5-18.8-25.3-37.4-37.4-56.4c-4.1-6.4-8.5-10.1-16.3-8.5c-2.1,0.4-4.4,0.1-6.6,0.1c-8,0-16.1,0-24.3,0
		C2068.7-1502.4,2068.7-1480.6,2068.7-1458.5z M1909.1-1358.2c0.7-13.4-11.1-24-23.3-24.4c-14.3-0.5-24.9,11.5-25.3,23.3
		c-0.6,14.4,11.5,25.1,23.6,25.4C1898.1-1333.4,1909.9-1345.3,1909.1-1358.2z M2101.8-1334c13.9,0.4,24.4-11.1,24.4-24.3
		c-0.1-13.2-10.2-23.4-23.2-24.3c-14.4-1-25.8,12.2-25.9,24.2C2076.9-1345.7,2089-1332.8,2101.8-1334z"/>
</g>
<g id="XMLID_8_">
	<path id="XMLID_16_" class="st0" d="M837.4,459c0-179.7-145.7-325.4-325.4-325.4S186.6,279.3,186.6,459
		c0,157.5,111.9,288.8,260.5,318.9L512,890.3l64.9-112.4C725.5,747.8,837.4,616.5,837.4,459z"/>
	<g id="XMLID_17_">
		<path id="XMLID_87_" class="st1" d="M411.3,507.8c-0.6-6.4-0.9-12.6-2-18.7c-4-21.7-24.5-37.4-46.4-36
			c-23.3,1.5-41.6,19.4-42.9,42c-0.3,4.7-0.5,9.3-0.8,14.3c-5.4-0.6-10.5-1-15.6-1.8c-0.9-0.1-2.2-1.8-2.3-2.8
			c-0.7-6.8-1.5-13.6-1.5-20.4c0.1-19,4-37.3,11-54.9c1.4-3.6,4.3-7.4,7.5-9.3c25-14.8,50.8-28.2,78.2-37.8
			c10-3.5,21.1-5.1,31.8-5.7c24-1.5,48.1-1.9,72.1-2.7c23.2-0.7,44.6,6,65.4,15.5c15.9,7.3,32.1,14,47.7,21.8
			c18.4,9.3,38.1,13.9,57.6,19.7c8.3,2.5,16.4,5.7,24.6,8.3c15,4.8,23.5,15.3,25.6,30.5c1.5,10.5,1.7,21.2,2.5,31.9
			c0.2,2.8-0.9,4.2-3.8,4.5c-7.5,0.6-14.9,1.4-22.9,2.2c-0.4-6.4-0.5-11.9-1.2-17.4c-2.5-20.8-17.8-36-39.5-39.4
			c-24.1-3.8-45.8,10.4-50.5,33.9c-1.4,7.2-1.1,14.7-1.6,22.5C540.3,507.8,475.9,507.8,411.3,507.8z M499.4,430.5
			c0.7,0.1,1.3,0.2,2,0.3c35.3,1.4,70.6,2.9,105.9,4.3c2.1,0.1,4.3,0.1,6.4-0.3c3.2-0.6,3.8-2.4,1.5-4.7c-2-2-4.3-3.8-6.7-5.2
			c-22.2-13.3-45.2-24.7-70.3-31.3c-12.6-3.3-25.3-5.4-38.8-4.7C499.4,402.7,499.4,416.5,499.4,430.5z M485.5,430.2
			c0-14.2,0-27.6,0-41.2c-0.8-0.1-1.4-0.3-2.1-0.2c-13.4,0.6-26.7,0.8-40.1,2.1c-6.5,0.6-13.8,1.6-19.1,4.9
			c-10.4,6.7-15.6,17.9-21.4,29.3C430.6,426.7,457.7,428.4,485.5,430.2z"/>
		<path id="XMLID_84_" class="st1" d="M650.8,465.4c17.8-0.1,32.5,14.3,32.7,32c0.2,18.2-14.4,33-32.5,33.1
			c-17.7,0-32.3-14.5-32.4-32.3C618.4,480,632.6,465.5,650.8,465.4z M662.5,497.8c-0.1-6.8-5.3-11.8-12-11.7
			c-6.3,0.2-11.6,5.7-11.4,12c0.2,6.4,5.4,11.4,11.9,11.4C657.6,509.5,662.6,504.3,662.5,497.8z"/>
		<path id="XMLID_81_" class="st1" d="M332.1,497.8c0.2-18.4,14.7-32.7,33.1-32.4c17.7,0.3,32.1,15,31.9,32.8
			c-0.2,17.8-15.2,32.5-33,32.2C346.2,530.2,331.9,515.5,332.1,497.8z M364.4,509.5c6.6,0,11.6-4.9,11.7-11.4
			c0.1-6.5-4.9-11.8-11.3-11.9c-6.6-0.1-12,5.1-12,11.7C352.7,504.3,358,509.5,364.4,509.5z"/>
	</g>
</g>
</svg>
